<svg width="511" height="128" viewBox="0 0 511 128" fill="none" xmlns="http://www.w3.org/2000/svg">
<path d="M457.47 35.51H46.19C20.68 35.51 0 56.19 0 81.7C0 107.21 20.68 127.89 46.19 127.89H457.47C482.98 127.89 503.66 107.21 503.66 81.7C503.66 56.19 482.98 35.51 457.47 35.51Z" fill="white"/>
<path d="M336.107 72.8292C337.136 72.8712 338.753 73.1862 339.614 73.5012C339.047 76.1052 338.732 78.2682 338.543 80.4942C338.501 81.2292 338.438 82.1742 338.48 82.7412C338.501 82.9932 338.606 83.0772 338.732 82.8042C338.963 82.2582 339.362 81.2082 339.698 80.3892C340.433 80.7462 341.462 81.4602 341.945 82.0482C340.748 84.2532 339.215 88.0542 338.585 90.0072C337.871 90.0282 336.758 89.9442 335.981 89.7552C335.582 88.5792 335.33 85.7022 335.309 83.4972C335.309 80.2632 335.624 77.1762 335.876 75.1812C335.96 74.4882 336.065 73.5642 336.107 72.8292ZM343.247 73.8372C345.914 74.2782 350.177 74.2152 352.172 73.7742C352.319 74.5302 352.277 76.2522 352.193 77.0292C350.156 77.3442 345.557 77.3862 343.478 77.1762C343.31 76.3782 343.163 74.8662 343.247 73.8372ZM342.491 82.6362C343.478 82.7622 344.738 83.1402 345.473 83.4762C345.242 83.9172 345.074 84.5262 345.074 84.9672C345.074 85.8492 345.809 86.3532 347.741 86.3532C349.736 86.3532 351.605 85.9542 352.886 85.3452C353.117 86.1642 353.18 87.9912 353.054 88.8942C352.34 89.1462 350.219 89.6712 347.489 89.6712C343.688 89.6712 341.777 88.2012 341.777 85.8702C341.777 84.9882 342.008 83.7702 342.491 82.6362ZM369.371 81.6282C369.371 82.1742 369.413 83.0982 369.455 84.0642C371.135 84.6102 372.542 85.4292 373.697 86.2482C373.634 87.2142 373.004 88.8522 372.206 89.4402C371.471 88.6212 370.568 87.9072 369.602 87.3612C369.581 89.4822 368.258 90.8682 365.402 90.8682C362.546 90.8682 360.404 89.4402 360.404 86.9202C360.404 85.1352 362.21 83.3922 365.444 83.3922C365.738 83.3922 366.032 83.4132 366.326 83.4132C366.242 81.7542 366.158 79.8012 366.221 78.6672C367.208 78.4152 368.678 78.4572 369.434 78.5832C369.308 79.7802 369.371 80.6832 369.371 81.6282ZM364.961 87.9492C366.305 87.9492 366.41 87.2562 366.41 86.1852C365.969 86.1222 365.549 86.0802 365.108 86.0802C363.995 86.0802 363.407 86.4372 363.407 86.9622C363.407 87.5292 364.058 87.9492 364.961 87.9492ZM366.221 76.4832C365.318 76.8822 363.869 77.2392 362.147 77.4912C361.139 80.5992 359.291 84.9252 357.863 87.0252C356.96 86.7732 355.406 85.9962 354.797 85.3662C356.372 83.1822 357.821 80.1582 358.682 77.8272C357.779 77.8692 356.855 77.8902 355.91 77.8482C355.532 77.0922 355.322 75.7062 355.301 74.6772C356.12 74.8452 357.17 74.9082 357.758 74.9082C358.388 74.9082 358.997 74.9082 359.585 74.8662C359.648 74.5092 359.711 74.1732 359.753 73.8582C359.858 73.1022 359.963 72.3462 360.005 71.6322C361.223 71.7372 362.483 72.0522 363.386 72.4512C363.281 73.0602 363.155 73.7322 362.987 74.4462C363.869 74.2572 364.793 73.9632 365.801 73.5852C366.137 74.2152 366.305 75.6852 366.221 76.4832ZM372.563 79.4652C371.198 78.0792 368.867 76.7352 367.523 76.1892C367.796 75.4122 368.468 74.2362 368.972 73.7112C370.505 74.3202 373.109 75.7692 374.117 76.6932C373.865 77.6172 373.193 78.7512 372.563 79.4652ZM379.073 71.7372C380.123 71.7162 381.677 71.8632 382.538 72.0102C382.286 73.1442 381.992 74.3832 381.95 75.2652C382.811 74.0682 384.239 73.1022 385.898 73.1022C388.754 73.1022 391.337 75.6222 391.337 80.5572C391.337 86.1642 388.25 89.6712 383.945 91.0152C382.895 90.4692 381.782 89.2512 381.236 88.1802C384.911 87.4452 387.872 85.5132 387.872 80.6202C387.872 77.3652 386.78 75.9792 385.352 75.9792C383.273 75.9792 381.992 78.6882 381.95 81.9852C381.908 82.6992 381.908 83.2872 381.971 84.1902C381.194 84.3582 379.577 84.3162 378.611 84.1062C378.569 83.0772 378.569 81.6912 378.569 80.5152C378.569 78.5832 378.905 74.9502 378.989 73.7742C379.031 73.0602 379.073 72.3252 379.073 71.7372ZM398.015 75.4332H398.036C398.666 75.4332 399.359 75.3912 400.094 75.3282C400.136 75.0552 400.178 74.8242 400.22 74.6142C400.388 73.5642 400.556 72.4512 400.577 71.5272C401.48 71.6532 403.391 72.0102 404.126 72.3252C404.042 72.7452 403.832 73.6902 403.601 74.8242C404.483 74.6352 405.302 74.4252 405.911 74.1942C405.995 74.9712 405.953 76.8192 405.848 77.5332C405.113 77.7432 404.084 77.9742 402.845 78.1422C402.677 78.8982 402.488 79.6542 402.32 80.3262C401.417 83.6652 400.157 87.8232 399.233 90.3012C398.204 90.1332 396.398 89.6502 395.621 89.1462C396.692 86.8572 398.351 82.4052 399.149 79.3812L399.359 78.5412C398.435 78.6042 397.469 78.6462 396.503 78.6672C396.293 77.9742 396.062 76.0842 396.041 75.3072C396.608 75.3912 397.196 75.4332 398.015 75.4332ZM410.363 76.3362H410.384C411.56 76.3362 413.093 76.4412 413.891 76.5672C413.891 77.3022 413.765 78.8562 413.576 79.6752C412.694 79.4862 411.434 79.4022 410.321 79.3812C409.019 79.3602 407.759 79.4232 406.772 79.5702C406.688 79.0242 406.73 77.3232 406.814 76.4832C407.843 76.3782 409.103 76.3152 410.363 76.3362ZM406.73 85.7652C406.73 86.6892 407.633 87.1722 409.544 87.1722C411.098 87.1722 412.694 86.8362 413.681 86.5422C413.681 87.2982 413.492 89.1042 413.177 89.8812C412.379 90.0912 410.72 90.2802 409.145 90.2802C405.302 90.2802 403.517 88.6632 403.517 86.4792C403.517 85.2402 404.021 83.7912 404.357 83.2032C405.26 83.3502 406.541 83.8122 407.234 84.2112C406.919 84.7362 406.73 85.2822 406.73 85.7652ZM419.855 74.6352C419.813 75.6222 419.876 78.7512 420.086 80.7882C420.338 83.4762 420.968 85.5552 421.745 85.5552C422.48 85.5552 422.795 83.0772 422.879 81.3552C423.95 81.7122 425.462 82.5732 426.092 83.1192C425.294 87.8652 423.761 89.6082 421.808 89.6082C419.624 89.6082 417.398 87.7812 416.684 81.3132C416.369 78.5412 416.201 76.0212 416.138 74.2992C417.062 74.2572 419.099 74.4462 419.855 74.6352ZM430.775 75.2652C432.938 77.4492 434.891 81.5232 435.164 84.0012C434.534 84.5682 433.127 85.3032 431.93 85.6812C431.384 82.6992 430.061 79.3182 427.919 76.9872C428.696 76.3992 430.103 75.6012 430.775 75.2652ZM447.323 83.3922H444.362L443.732 72.8922H447.932L447.323 83.3922ZM445.769 89.3982C444.425 89.3982 443.417 88.3062 443.417 87.0462C443.417 85.7442 444.467 84.6942 445.769 84.6942C447.071 84.6942 448.121 85.7442 448.121 87.0462C448.121 88.3482 447.071 89.3982 445.769 89.3982Z" fill="black"/>
<path d="M309.625 77.35C310.785 75.72 312.185 74.63 313.605 73.98C315.035 73.27 316.225 73.01 317.855 73.01C318.565 73.01 319.385 73.08 320.005 73.38L318.575 81.49C318.175 81.27 317.095 80.46 314.965 80.46C313.825 80.46 312.215 80.62 310.765 81.77C308.615 83.46 308.045 86.09 307.815 87.4L309.635 77.37L309.625 77.35Z" fill="black"/>
<path d="M250.444 97.7H241.604L247.504 65.27H256.344L250.444 97.7Z" fill="black"/>
<path d="M263.902 97.7H255.062L260.952 65.27H269.802L263.902 97.7Z" fill="black"/>
<path d="M305.783 97.7H296.933L301.353 73.38H310.203L305.783 97.7Z" fill="black"/>
<path d="M174.626 75.21C172.786 73.11 169.626 72.64 168.216 72.64C164.176 72.64 161.456 73.81 159.636 75.3L161.406 65.27H152.556L146.636 97.71H155.486L157.896 85.18C158.676 80.76 161.686 80.03 163.216 80.03C164.746 80.03 167.516 80.76 166.736 85.18L164.326 97.71H173.176C173.176 97.71 176.206 81.69 176.236 81.49C176.496 80.02 176.656 77.53 174.616 75.21H174.626Z" fill="black"/>
<path d="M94.9223 97.7H86.0723L91.9923 65.27H100.842L94.9223 97.7Z" fill="black"/>
<path d="M89.8337 85.9001H74.7637L76.3237 77.0601H91.3937L89.8337 85.9001Z" fill="black"/>
<path d="M73.9877 97.7H65.1377L71.0377 65.27H79.8877L73.9877 97.7Z" fill="black"/>
<path d="M108.392 97.7H99.542L103.962 74.11H112.812L108.392 97.7Z" fill="black"/>
<path d="M109.926 71.17C112.775 71.17 115.086 68.8598 115.086 66.01C115.086 63.1602 112.775 60.85 109.926 60.85C107.076 60.85 104.766 63.1602 104.766 66.01C104.766 68.8598 107.076 71.17 109.926 71.17Z" fill="black"/>
<path d="M232.32 73.38L231.73 77.07C231.25 74.55 228.16 72.63 225.14 72.63C218.51 72.63 212.42 77.86 211.13 85.18C209.75 93.01 213.24 98.45 220.59 98.45C223.6 98.45 226.4 97.04 228.61 94.75L227.89 97.71H236.74L241.16 73.38H232.31H232.32ZM223.85 91.09C220.79 91.09 218.53 88.61 218.8 85.55C219.07 82.49 221.77 80.01 224.83 80.01C227.89 80.01 230.15 82.49 229.88 85.55C229.61 88.61 226.91 91.09 223.85 91.09Z" fill="black"/>
<path d="M137.321 73.38L136.691 77.29C135.291 74.45 132.461 72.64 127.911 72.64C122.021 72.64 115.941 77.86 114.651 85.18C113.271 93.01 116.761 98.44 124.111 98.44C128.191 98.44 131.291 97.54 133.611 94.75L132.571 100.65C132.061 103.52 128.711 105.81 125.771 105.81C123.081 105.81 120.751 103.89 120.741 101.39H113.001C112.691 103.86 112.931 111.71 124.731 111.71C138.051 111.71 141.161 102.13 141.421 100.65L146.171 73.37H137.321V73.38ZM128.781 91.45C125.721 91.45 123.461 88.97 123.731 85.91C124.001 82.85 126.701 80.37 129.761 80.37C132.821 80.37 135.081 82.85 134.811 85.91C134.541 88.97 131.841 91.45 128.781 91.45Z" fill="black"/>
<path d="M274.702 75.53C272.262 77.65 270.192 81.01 269.452 85.2C268.612 89.95 270.032 93.02 271.272 94.64C273.642 97.71 277.262 98.44 280.382 98.44C283.502 98.44 287.382 97.71 290.832 94.64C291.972 93.63 293.372 92.04 294.472 89.84H286.612C286.102 90.62 285.402 91.18 284.812 91.52C283.622 92.13 282.112 92.19 281.892 92.19C279.952 92.19 278.992 91.52 278.552 90.96C277.712 89.9 277.302 88.73 277.542 87.39H295.462C295.672 86.71 295.852 85.98 295.992 85.21C296.732 81.02 295.842 77.67 294.152 75.54C292.552 73.53 289.722 71.91 285.062 71.91C280.402 71.91 277.002 73.53 274.692 75.54M288.042 82.22H278.832L278.892 81.85C279.322 79.41 281.732 77.43 284.282 77.43C286.832 77.43 288.542 79.41 288.112 81.85L288.052 82.22H288.042Z" fill="black"/>
<path d="M200.178 65.27H183.958L178.038 97.71H196.518C202.368 97.71 207.008 93.42 207.938 88.13C208.508 84.88 207.118 82.65 204.688 81.5C206.798 79.86 208.348 77.49 208.808 74.85C209.678 69.91 206.808 65.28 200.178 65.28V65.27ZM197.688 87.74C197.368 89.58 195.608 91.07 193.768 91.07H187.258L188.478 84.41H194.948C196.788 84.41 198.018 85.9 197.688 87.74ZM199.898 75.23C199.578 77.07 197.818 78.56 195.978 78.56H189.538L190.758 71.9H197.158C198.998 71.9 200.228 73.39 199.898 75.23Z" fill="black"/>
<path d="M234.513 40.32L288.383 0L272.773 37.49" fill="white"/>
</svg>
