<svg width="52" height="52" viewBox="0 0 52 52" fill="none" xmlns="http://www.w3.org/2000/svg">
<path d="M25.77 0C11.54 0 0 11.54 0 25.77C0 40 11.54 51.54 25.77 51.54C40 51.54 51.54 40 51.54 25.77C51.54 11.54 40 0 25.77 0ZM15.13 30.81C12.35 30.81 10.09 28.55 10.09 25.77C10.09 22.99 12.35 20.73 15.13 20.73C17.91 20.73 20.17 22.99 20.17 25.77C20.17 28.55 17.91 30.81 15.13 30.81ZM36.42 36.41L15.13 16.24L3.95 26.86C3.93 26.5 3.92 26.13 3.92 25.77C3.92 13.7 13.7 3.91998 25.77 3.91998C37.84 3.91998 47.62 13.7 47.62 25.77L36.42 36.41Z" fill="white"/>
<path d="M36.4204 21.29C33.9404 21.29 31.9404 23.3001 31.9404 25.7701C31.9404 28.2401 33.9504 30.2501 36.4204 30.2501C38.8904 30.2501 40.9004 28.2401 40.9004 25.7701C40.9004 23.3001 38.8904 21.29 36.4204 21.29Z" fill="white"/>
</svg>
