<svg width="999" height="202" viewBox="0 0 999 202" fill="none" xmlns="http://www.w3.org/2000/svg">
<path d="M957.041 65.52C961.641 59.04 967.187 54.72 972.827 52.12C978.507 49.3067 983.227 48.28 989.707 48.28C992.521 48.28 995.76 48.5467 998.227 49.7467L992.547 81.9334C990.974 81.0667 986.654 77.8267 978.227 77.8267C973.694 77.8267 967.307 78.48 961.547 83.0134C953.027 89.7067 950.734 100.16 949.827 105.347L957.041 65.5067V65.52Z" fill="white"/>
<path d="M725.8 146.32H690.68L714.093 17.5601H749.213L725.8 146.32Z" fill="white"/>
<path d="M778.48 146.32H743.36L766.774 17.5601H801.894L778.48 146.32Z" fill="white"/>
<path d="M942.374 146.32H907.254L924.814 49.7466H959.934L942.374 146.32Z" fill="white"/>
<path d="M430.08 57.0134C422.787 48.6934 410.227 46.8267 404.627 46.8267C388.573 46.8267 377.8 51.4667 370.587 57.3867L377.613 17.5601H342.493L319 146.333H354.12L363.68 96.5867C366.773 79.0267 378.733 76.1201 384.813 76.1201C390.893 76.1201 401.88 79.0267 398.773 96.5867L389.213 146.333H424.333C424.333 146.333 436.347 82.7334 436.48 81.9467C437.507 76.0934 438.133 66.2267 430.067 57.0134H430.08Z" fill="white"/>
<path d="M117.066 146.32H81.9463L105.426 17.5601H140.546L117.066 146.32Z" fill="white"/>
<path d="M97.5067 99.4534H37.6533L43.84 64.3601H103.693L97.5067 99.4534Z" fill="white"/>
<path d="M35.12 146.32H0L23.4133 17.5601H58.5333L35.12 146.32Z" fill="white"/>
<path d="M169.773 146.32H134.653L152.213 52.6799H187.333L169.773 146.32Z" fill="white"/>
<path d="M175.6 40.96C186.911 40.96 196.08 31.7908 196.08 20.48C196.08 9.16921 186.911 0 175.6 0C164.289 0 155.12 9.16921 155.12 20.48C155.12 31.7908 164.289 40.96 175.6 40.96Z" fill="white"/>
<path d="M655.56 49.7467L653.227 64.3734C651.333 54.3601 639.04 46.7334 627.067 46.7334C600.733 46.7334 576.587 67.4801 571.453 96.5734C565.973 127.667 579.84 149.253 608.987 149.253C620.96 149.253 632.067 143.653 640.84 134.56L637.987 146.32H673.107L690.667 49.7467H655.547H655.56ZM621.933 120.08C609.787 120.08 600.813 110.227 601.893 98.0801C602.973 85.9334 613.693 76.0801 625.853 76.0801C638.013 76.0801 646.973 85.9334 645.893 98.0801C644.813 110.227 634.093 120.08 621.933 120.08Z" fill="white"/>
<path d="M283.881 49.7466L281.401 65.2666C275.854 53.9999 264.601 46.8132 246.561 46.8132C223.201 46.8132 199.054 67.5466 193.934 96.6132C188.454 127.68 202.321 149.253 231.481 149.253C247.654 149.253 260.001 145.667 269.174 134.627L265.041 158.04C263.027 169.427 249.734 178.52 238.027 178.52C227.347 178.52 218.094 170.88 218.041 160.973H187.307C186.081 170.787 187.041 201.947 233.894 201.947C286.761 201.947 299.134 163.907 300.161 158.053L319.001 49.7732H283.881V49.7466ZM250.001 121.493C237.854 121.493 228.881 111.64 229.961 99.4932C231.041 87.3466 241.761 77.4932 253.921 77.4932C266.081 77.4932 275.041 87.3466 273.961 99.4932C272.881 111.64 262.161 121.493 250.001 121.493Z" fill="white"/>
<path d="M820.547 58.3066C810.88 66.7333 802.654 80.04 799.72 96.68C796.4 115.533 802.014 127.733 806.96 134.16C816.347 146.36 830.747 149.24 843.134 149.24C855.52 149.24 870.92 146.36 884.627 134.16C889.147 130.133 894.72 123.853 899.08 115.08H867.867C865.827 118.187 863.08 120.4 860.707 121.733C856 124.173 849.974 124.4 849.12 124.4C841.427 124.4 837.627 121.733 835.88 119.52C832.56 115.307 830.92 110.667 831.854 105.347H902.974C903.827 102.627 904.534 99.7466 905.08 96.68C908.014 80.04 904.48 66.7333 897.787 58.3066C891.427 50.32 880.187 43.8933 861.707 43.8933C843.227 43.8933 829.72 50.32 820.547 58.3066ZM873.507 84.8666H836.92L837.174 83.4C838.88 73.7066 848.454 65.84 858.56 65.84C868.667 65.84 875.467 73.7066 873.76 83.4L873.507 84.8666Z" fill="white"/>
<path d="M529.786 17.5601H465.4L441.906 146.333H515.266C538.48 146.333 556.893 129.293 560.6 108.293C562.866 95.4134 557.346 86.5201 547.68 81.9601C556.053 75.4667 562.186 66.0534 564.04 55.5601C567.493 35.9601 556.106 17.5734 529.76 17.5734L529.786 17.5601ZM519.92 106.76C518.626 114.067 511.666 119.987 504.36 119.987H478.506L483.333 93.5334H509.026C516.333 93.5334 521.213 99.4534 519.92 106.76ZM528.666 57.1201C527.373 64.4267 520.413 70.3467 513.106 70.3467H487.546L492.373 43.8934H517.773C525.08 43.8934 529.96 49.8134 528.666 57.1201Z" fill="white"/>
</svg>
